:FULLY-SPECIFIED
:FORCE-ALL-JOINTS-BE-3DOF
:DEGREES
714
root -11.7031 13.9145 -38.303 512.319 -61.6509 212.664
lfemur -65.1786 24.5934 -1.22763
ltibia 75.4066 0 0
lfoot -8.21938 -7.70684 0
ltoes -3.20704 0 0
rfemur 8.9664 -10.0353 11.5365
rtibia 40.6258 0 0
rfoot -25.0711 -27.0563 0
rtoes -27.8409 0 0
lowerback 12.1963 1.41218 8.58738
upperback -1.74782 3.41004 5.72533
thorax -8.62638 1.26617 0.680124
lowerneck -4.25091 4.8479 0.827758
upperneck 3.62836 6.37311 0.958723
head 1.84434 3.21082 0.343542
lclavicle 1.44309e-14 3.48195e-14 0
lhumerus 62.8923 14.9504 107.793
lradius 11.8681 0 0
lwrist -77.3151 0 0
lhand -33.5454 41.3591 0
lfingers 7.12502 0 0
lthumb -6.74071 71.2316 0
rclavicle 1.44309e-14 3.48195e-14 0
rhumerus -75.3613 19.2219 -95.3747
rradius 115.02 0 0
rwrist -67.5428 0 0
rhand -9.84018 -41.8516 0
rfingers 7.12502 0 0
rthumb 16.1365 -71.1851 0
715
root -11.7141 13.9089 -38.3079 512.032 -61.7255 213.155
lfemur -65.5885 24.7544 -1.24993
ltibia 75.7614 0 0
lfoot -8.44336 -7.83906 0
ltoes -3.16985 0 0
rfemur 9.14538 -10.3247 11.5984
rtibia 40.3495 0 0
rfoot -25.1024 -26.9257 0
rtoes -28.5601 0 0
lowerback 12.2065 1.39861 8.70794
upperback -1.72245 3.40786 5.78674
thorax -8.60236 1.25937 0.680314
lowerneck -4.25513 4.81881 0.830391
upperneck 3.62263 6.33231 0.990619
head 1.84213 3.19115 0.35164
lclavicle 2.56619e-14 5.66644e-14 0
lhumerus 62.4748 13.998 105.83
lradius 11.9414 0 0
lwrist -75.6536 0 0
lhand -33.4181 42.3211 0
lfingers 7.12502 0 0
lthumb -6.61783 72.1975 0
rclavicle 2.56619e-14 5.66644e-14 0
rhumerus -75.2961 19.2865 -95.393
rradius 114.767 0 0
rwrist -67.0163 0 0
rhand -8.94038 -41.025 0
rfingers 7.12502 0 0
rthumb 17.003 -70.2891 0
716
root -11.7251 13.9034 -38.3128 511.669 -61.8318 213.799
lfemur -66.1462 24.9508 -1.29018
ltibia 76.2493 0 0
lfoot -8.7556 -7.99832 0
ltoes -3.12914 0 0
rfemur 9.39438 -10.6714 11.6869
rtibia 39.9489 0 0
rfoot -25.127 -26.7782 0
rtoes -29.5322 0 0
lowerback 12.2178 1.38088 8.87114
upperback -1.69375 3.406 5.86615
thorax -8.57428 1.2505 0.676424
lowerneck -4.24429 4.78152 0.853209
upperneck 3.60023 6.27983 1.01345
head 1.8327 3.16561 0.35231
lclavicle 3.92972e-14 8.46823e-14 0
lhumerus 61.9692 12.7794 103.376
lradius 12.0241 0 0
lwrist -73.5379 0 0
lhand -33.2656 43.4704 0
lfingers 7.12502 0 0
lthumb -6.47058 73.3516 0
rclavicle 3.92972e-14 8.46823e-14 0
rhumerus -75.2199 19.3592 -95.4157
rradius 114.438 0 0
rwrist -66.3152 0 0
rhand -7.74799 -39.9314 0
rfingers 7.12502 0 0
rthumb 18.1513 -69.1044 0
717
root -11.7308 13.9004 -38.3175 511.668 -61.8598 213.845
lfemur -66.2349 24.983 -1.32615
ltibia 76.3267 0 0
lfoot -8.80387 -8.01162 0
ltoes -3.14587 0 0
rfemur 9.4314 -10.7001 11.6839
rtibia 39.8863 0 0
rfoot -25.1124 -26.7885 0
rtoes -29.7209 0 0
lowerback 12.2037 1.38022 8.87756
upperback -1.69284 3.40404 5.86736
thorax -8.56493 1.24957 0.674878
lowerneck -4.22686 4.7806 0.866012
upperneck 3.59613 6.27861 1.00212
head 1.82911 3.16487 0.346078
lclavicle 4.05032e-14 8.59643e-14 0
lhumerus 61.886 12.627 103.011
lradius 12.0457 0 0
lwrist -73.2123 0 0
lhand -33.2522 43.4316 0
lfingers 7.12502 0 0
lthumb -6.45767 73.3132 0
rclavicle 4.05032e-14 8.59643e-14 0
rhumerus -75.2149 19.3536 -95.4325
rradius 114.367 0 0
rwrist -66.1475 0 0
rhand -7.48027 -39.672 0
rfingers 7.12502 0 0
rthumb 18.4088 -68.821 0
718
root -11.7365 13.8975 -38.3222 511.668 -61.8771 213.873
lfemur -66.2895 25.0033 -1.34863
ltibia 76.3744 0 0
lfoot -8.83388 -8.01991 0
ltoes -3.1567 0 0
rfemur 9.45408 -10.7172 11.6821
rtibia 39.8482 0 0
rfoot -25.1032 -26.7963 0
rtoes -29.8358 0 0
lowerback 12.1945 1.37985 8.88135
upperback -1.69233 3.40281 5.86786
thorax -8.55899 1.249 0.673759
lowerneck -4.21563 4.78023 0.874419
upperneck 3.59364 6.27811 0.994636
head 1.82686 3.16454 0.34199
lclavicle 4.11687e-14 8.66868e-14 0
lhumerus 61.8354 12.5357 102.789
lradius 12.0593 0 0
lwrist -73.016 0 0
lhand -33.243 43.3954 0
lfingers 7.12502 0 0
lthumb -6.44875 73.2772 0
rclavicle 4.11687e-14 8.66868e-14 0
rhumerus -75.2119 19.3495 -95.4434
rradius 114.323 0 0
rwrist -66.0409 0 0
rhand -7.31164 -39.5081 0
rfingers 7.12502 0 0
rthumb 18.5711 -68.6418 0
719
root -11.7422 13.8945 -38.3269 511.67 -61.8858 213.884
lfemur -66.3161 25.0145 -1.36053
ltibia 76.3984 0 0
lfoot -8.84934 -8.02425 0
ltoes -3.1633 0 0
rfemur 9.46498 -10.7241 11.6815
rtibia 39.8307 0 0
rfoot -25.0982 -26.8035 0
rtoes -29.8893 0 0
lowerback 12.189 1.37975 8.88285
upperback -1.69224 3.40213 5.86751
thorax -8.55563 1.24872 0.672802
lowerneck -4.20891 4.78052 0.879833
upperneck 3.5925 6.2785 0.989696
head 1.82565 3.16468 0.339366
lclavicle 4.13088e-14 8.688e-14 0
lhumerus 61.8119 12.4968 102.685
lradius 12.0666 0 0
lwrist -72.9293 0 0
lhand -33.236 43.3475 0
lfingers 7.12502 0 0
lthumb -6.44198 73.2296 0
rclavicle 4.13088e-14 8.688e-14 0
rhumerus -75.2108 19.3462 -95.4502
rradius 114.299 0 0
rwrist -65.9803 0 0
rhand -7.21935 -39.4172 0
rfingers 7.12502 0 0
rthumb 18.6598 -68.5423 0
720
root -11.7479 13.8915 -38.3316 511.674 -61.888 213.882
lfemur -66.3212 25.0195 -1.36474
ltibia 76.4041 0 0
lfoot -8.854 -8.02567 0
ltoes -3.16736 0 0
rfemur 9.46666 -10.7224 11.682
rtibia 39.8298 0 0
rfoot -25.0962 -26.8123 0
rtoes -29.8937 0 0
lowerback 12.1858 1.37991 8.88236
upperback -1.69253 3.40185 5.86617
thorax -8.55402 1.24867 0.67174
lowerneck -4.20497 4.78158 0.883661
upperneck 3.59243 6.27992 0.986014
head 1.82519 3.16535 0.337525
lclavicle 4.09385e-14 8.65739e-14 0
lhumerus 61.8102 12.5016 102.674
lradius 12.0696 0 0
lwrist -72.9327 0 0
lhand -33.2293 43.2737 0
lfingers 7.12502 0 0
lthumb -6.43552 73.1559 0
rclavicle 4.09385e-14 8.65739e-14 0
rhumerus -75.2113 19.3428 -95.4548
rradius 114.289 0 0
rwrist -65.9506 0 0
rhand -7.1807 -39.3769 0
rfingers 7.12502 0 0
rthumb 18.6969 -68.4978 0
721
root -11.7536 13.8885 -38.3362 511.681 -61.8857 213.869
lfemur -66.3109 25.0209 -1.36415
ltibia 76.3974 0 0
lfoot -8.85157 -8.02524 0
ltoes -3.17057 0 0
rfemur 9.46166 -10.7136 11.6834
rtibia 39.8413 0 0
rfoot -25.0958 -26.8246 0
rtoes -29.8613 0 0
lowerback 12.1833 1.38031 8.8802
upperback -1.69322 3.4018 5.86369
thorax -8.55331 1.2488 0.670309
lowerneck -4.20211 4.78354 0.887306
upperneck 3.59318 6.28252 0.982299
head 1.82518 3.16661 0.335788
lclavicle 4.00729e-14 8.57983e-14 0
lhumerus 61.8248 12.5415 102.733
lradius 12.0699 0 0
lwrist -73.0068 0 0
lhand -33.221 43.1598 0
lfingers 7.12502 0 0
lthumb -6.42756 73.0422 0
rclavicle 4.00729e-14 8.57983e-14 0
rhumerus -75.2132 19.3382 -95.4587
rradius 114.289 0 0
rwrist -65.9368 0 0
rhand -7.17294 -39.3646 0
rfingers 7.12502 0 0
rthumb 18.7043 -68.4837 0
722
root -11.7593 13.8855 -38.3409 511.693 -61.8812 213.847
lfemur -66.2916 25.0215 -1.36167
ltibia 76.3838 0 0
lfoot -8.84579 -8.02399 0
ltoes -3.1746 0 0
rfemur 9.45255 -10.6992 11.6856
rtibia 39.8614 0 0
rfoot -25.0959 -26.8424 0
rtoes -29.8046 0 0
lowerback 12.1804 1.38094 8.87669
upperback -1.69428 3.40181 5.85993
thorax -8.55268 1.24902 0.668242
lowerneck -4.19862 4.78649 0.892173
upperneck 3.59448 6.28646 0.977261
head 1.82533 3.16853 0.333475
lclavicle 3.87268e-14 8.45833e-14 0
lhumerus 61.8503 12.608 102.838
lradius 12.0694 0 0
lwrist -73.1319 0 0
lhand -33.2093 42.9914 0
lfingers 7.12502 0 0
lthumb -6.41624 72.8741 0
rclavicle 3.87268e-14 8.45833e-14 0
rhumerus -75.2163 19.3316 -95.4639
rradius 114.292 0 0
rwrist -65.9237 0 0
rhand -7.17334 -39.3578 0
rfingers 7.12502 0 0
rthumb 18.7038 -68.4754 0
723
root -11.765 13.8826 -38.3456 511.708 -61.8763 213.819
lfemur -66.2695 25.0242 -1.36019
ltibia 76.3692 0 0
lfoot -8.84037 -8.02299 0
ltoes -3.18116 0 0
rfemur 9.44187 -10.6806 11.6885
rtibia 39.8859 0 0
rfoot -25.0952 -26.8679 0
rtoes -29.7359 0 0
lowerback 12.1754 1.38178 8.87214
upperback -1.69571 3.40171 5.85477
thorax -8.55128 1.24928 0.665274
lowerneck -4.1928 4.79057 0.899667
upperneck 3.59606 6.29188 0.96961
head 1.82534 3.17116 0.329905
lclavicle 3.69154e-14 8.29589e-14 0
lhumerus 61.8814 12.6923 102.963
lradius 12.0699 0 0
lwrist -73.2885 0 0
lhand -33.1922 42.7544 0
lfingers 7.12502 0 0
lthumb -6.39975 72.6376 0
rclavicle 3.69154e-14 8.29589e-14 0
rhumerus -75.2203 19.3222 -95.472
rradius 114.291 0 0
rwrist -65.8961 0 0
rhand -7.15917 -39.3342 0
rfingers 7.12502 0 0
rthumb 18.7173 -68.4481 0
724
root -11.7707 13.8796 -38.3503 511.729 -61.8732 213.788
lfemur -66.251 25.0317 -1.3626
ltibia 76.3592 0 0
lfoot -8.83906 -8.02328 0
ltoes -3.19191 0 0
rfemur 9.43218 -10.6594 11.692
rtibia 39.9109 0 0
rfoot -25.0925 -26.9031 0
rtoes -29.6675 0 0
lowerback 12.1671 1.38281 8.86688
upperback -1.6975 3.40135 5.84804
thorax -8.54828 1.24951 0.661138
lowerneck -4.18294 4.79587 0.911192
upperneck 3.59767 6.29895 0.958056
head 1.82491 3.17457 0.324399
lclavicle 3.46537e-14 8.09551e-14 0
lhumerus 61.9125 12.7858 103.086
lradius 12.0731 0 0
lwrist -73.457 0 0
lhand -33.1679 42.4345 0
lfingers 7.12502 0 0
lthumb -6.37624 72.3184 0
rclavicle 3.46537e-14 8.09551e-14 0
rhumerus -75.225 19.3089 -95.4849
rradius 114.282 0 0
rwrist -65.839 0 0
rhand -7.10771 -39.2711 0
rfingers 7.12502 0 0
rthumb 18.7665 -68.3774 0
725
root -11.7764 13.8766 -38.355 511.755 -61.8741 213.755
lfemur -66.2423 25.0468 -1.37179
ltibia 76.3595 0 0
lfoot -8.84556 -8.02591 0
ltoes -3.20855 0 0
rfemur 9.42604 -10.6371 11.696
rtibia 39.9323 0 0
rfoot -25.0867 -26.9499 0
rtoes -29.6117 0 0
lowerback 12.154 1.38403 8.86122
upperback -1.69964 3.40055 5.83961
thorax -8.54285 1.24964 0.65557
lowerneck -4.16732 4.80252 0.928152
upperneck 3.59905 6.30781 0.941309
head 1.82375 3.17883 0.316275
lclavicle 3.19567e-14 7.86018e-14 0
lhumerus 61.9383 12.88 103.182
lradius 12.081 0 0
lwrist -73.618 0 0
lhand -33.1344 42.0175 0
lfingers 7.12502 0 0
lthumb -6.34389 71.9023 0
rclavicle 3.19567e-14 7.86018e-14 0
rhumerus -75.2302 19.2909 -95.5042
rradius 114.259 0 0
rwrist -65.7373 0 0
rhand -6.99623 -39.1462 0
rfingers 7.12502 0 0
rthumb 18.8735 -68.2384 0
726
root -11.7821 13.8737 -38.3597 511.787 -61.8809 213.724
lfemur -66.2497 25.0723 -1.39067
ltibia 76.3758 0 0
lfoot -8.86362 -8.03193 0
ltoes -3.23276 0 0
rfemur 9.42599 -10.6151 11.7003
rtibia 39.9461 0 0
rfoot -25.0763 -27.0106 0
rtoes -29.581 0 0
lowerback 12.1348 1.38541 8.85548
upperback -1.70213 3.39914 5.82935
thorax -8.53414 1.24962 0.648302
lowerneck -4.14425 4.81063 0.951954
upperneck 3.59992 6.31861 0.918079
head 1.82157 3.18398 0.304856
lclavicle 2.88393e-14 7.59292e-14 0
lhumerus 61.9533 12.9661 103.226
lradius 12.0953 0 0
lwrist -73.7519 0 0
lhand -33.0898 41.4891 0
lfingers 7.12502 0 0
lthumb -6.30086 71.3752 0
rclavicle 2.88393e-14 7.59292e-14 0
rhumerus -75.2356 19.2673 -95.5318
rradius 114.214 0 0
rwrist -65.5758 0 0
rhand -6.80199 -38.9369 0
rfingers 7.12502 0 0
rthumb 19.0599 -68.0067 0
727
root -11.7878 13.8707 -38.3644 511.826 -61.8957 213.696
lfemur -66.2795 25.1109 -1.42214
ltibia 76.4138 0 0
lfoot -8.89696 -8.04238 0
ltoes -3.26623 0 0
rfemur 9.43459 -10.595 11.7049
rtibia 39.9484 0 0
rfoot -25.0602 -27.087 0
rtoes -29.5877 0 0
lowerback 12.1081 1.38694 8.84997
upperback -1.70495 3.39697 5.81711
thorax -8.52132 1.24938 0.63907
lowerneck -4.11201 4.82031 0.984
upperneck 3.60002 6.33151 0.887075
head 1.81806 3.1901 0.289459
lclavicle 2.53166e-14 7.29671e-14 0
lhumerus 61.9522 13.0356 103.195
lradius 12.1178 0 0
lwrist -73.8391 0 0
lhand -33.0323 40.8352 0
lfingers 7.12502 0 0
lthumb -6.24533 70.7229 0
rclavicle 2.53166e-14 7.29671e-14 0
rhumerus -75.241 19.2371 -95.5693
rradius 114.144 0 0
rwrist -65.3394 0 0
rhand -6.50226 -38.6206 0
rfingers 7.12502 0 0
rthumb 19.3478 -67.6576 0
